<?xml version="1.0" standalone="no"?>
<!DOCTYPE svg PUBLIC "-//W3C//DTD SVG 20010904//EN"
 "http://www.w3.org/TR/2001/REC-SVG-20010904/DTD/svg10.dtd">
<svg version="1.0" xmlns="http://www.w3.org/2000/svg"
 width="3696.000000pt" height="5174.000000pt" viewBox="0 0 3696.000000 5174.000000"
 preserveAspectRatio="xMidYMid meet">

<g transform="translate(0.000000,5174.000000) scale(0.100000,-0.100000)"
fill="#000000" stroke="none">
<path d="M17970 46380 c-194 -26 -433 -82 -621 -146 -168 -57 -409 -163 -513
-227 -50 -30 -63 -34 -85 -26 -47 19 -270 69 -399 90 -182 30 -672 38 -882 14
-341 -39 -691 -129 -1006 -258 l-111 -45 -184 -7 c-430 -15 -847 -80 -1328
-206 -185 -49 -491 -142 -649 -199 -72 -26 -152 -46 -220 -55 -717 -100 -1567
-389 -2519 -855 -967 -474 -1872 -1057 -2490 -1604 -142 -125 -635 -622 -753
-758 -46 -54 -111 -119 -144 -146 -164 -131 -416 -358 -649 -585 -407 -394
-645 -655 -1037 -1137 -20 -25 -116 -153 -212 -285 -273 -376 -518 -770 -790
-1275 -190 -352 -476 -1040 -633 -1523 -302 -933 -488 -1995 -526 -3012 -17
-441 -6 -1274 20 -1605 174 -2161 800 -4435 1872 -6797 725 -1599 1692 -3285
2749 -4798 1005 -1438 2136 -2822 3246 -3970 289 -298 830 -836 1074 -1066
597 -563 1273 -1133 1917 -1617 155 -116 287 -222 294 -234 7 -13 347 -585
757 -1273 410 -687 760 -1284 779 -1325 19 -41 56 -111 83 -155 43 -73 84
-195 463 -1390 l416 -1310 76 -1025 c81 -1095 88 -1177 112 -1285 70 -318 313
-596 618 -708 83 -31 781 -211 875 -226 42 -7 436 -11 1121 -11 901 0 1069 2
1144 15 209 37 374 120 535 272 177 166 271 323 324 543 15 62 66 459 146
1145 l122 1050 425 1440 c372 1262 429 1448 464 1507 22 37 53 98 70 135 17
38 366 632 777 1322 l747 1254 320 240 c731 549 1361 1083 2045 1733 375 356
1095 1086 1426 1444 2503 2719 4586 5903 5900 9016 901 2136 1432 4183 1584
6109 30 371 43 1026 30 1450 -42 1368 -296 2634 -759 3793 -541 1351 -1361
2551 -2456 3592 -220 209 -502 461 -610 546 -20 16 -107 108 -194 204 -182
201 -579 595 -726 721 -854 731 -2163 1501 -3360 1979 -666 266 -1273 431
-1767 480 -61 6 -140 23 -193 40 -255 82 -571 163 -830 210 -272 50 -462 70
-725 77 l-245 6 -97 48 c-200 100 -514 215 -748 274 -350 87 -570 115 -918
115 -338 0 -591 -32 -847 -106 l-84 -24 -113 59 c-330 174 -745 299 -1167 351
-224 27 -736 27 -941 0z"/>
</g>
</svg>
