<?xml version="1.0" standalone="no"?>
<!DOCTYPE svg PUBLIC "-//W3C//DTD SVG 20010904//EN"
 "http://www.w3.org/TR/2001/REC-SVG-20010904/DTD/svg10.dtd">
<svg version="1.0" xmlns="http://www.w3.org/2000/svg"
 width="3696.000000pt" height="5174.000000pt" viewBox="0 0 3696.000000 5174.000000"
 preserveAspectRatio="xMidYMid meet">

<g transform="translate(0.000000,5174.000000) scale(0.100000,-0.100000)"
fill="#000000" stroke="none">
<path d="M6571 47459 c-475 -55 -1051 -269 -1454 -540 -454 -304 -849 -714
-1136 -1174 -602 -969 -920 -2259 -1011 -4105 -21 -431 -33 -1431 -20 -1700
23 -503 98 -1071 219 -1656 146 -704 308 -1310 707 -2643 289 -965 397 -1348
484 -1724 45 -192 120 -578 120 -617 0 -14 -30 -102 -66 -195 -384 -989 -773
-2241 -1077 -3465 -222 -895 -292 -1223 -702 -3300 -139 -704 -225 -1068 -320
-1355 -72 -219 -388 -902 -647 -1400 -235 -450 -442 -819 -662 -1175 -189
-307 -224 -410 -233 -675 -7 -228 19 -368 102 -540 55 -113 113 -194 210 -290
212 -213 462 -315 772 -315 104 0 114 -2 109 -17 -3 -10 -21 -69 -41 -132
-125 -401 -211 -755 -261 -1071 -27 -165 -27 -672 -1 -809 47 -250 145 -439
312 -606 216 -217 462 -315 785 -315 206 0 348 32 549 125 71 33 97 41 99 31
2 -8 -11 -180 -27 -383 -57 -687 -67 -1021 -36 -1198 39 -223 135 -406 300
-570 96 -97 177 -155 290 -210 171 -82 313 -109 535 -102 230 8 358 46 566
167 56 33 104 60 107 60 2 0 7 -102 10 -228 19 -662 162 -1211 443 -1698 194
-337 455 -531 796 -590 126 -22 378 -15 493 14 94 24 220 76 290 120 27 17 53
28 56 24 3 -4 23 -56 44 -117 140 -409 361 -868 507 -1052 97 -122 230 -229
373 -298 172 -83 312 -109 540 -102 275 9 423 62 669 238 231 166 470 237 650
195 l70 -17 295 -292 c1398 -1380 2625 -2338 3616 -2822 397 -193 458 -210
775 -210 184 0 239 3 305 19 103 24 212 67 298 118 38 22 71 37 74 34 4 -3
102 -306 220 -674 l213 -667 85 -1115 c91 -1193 95 -1232 160 -1390 101 -244
302 -445 545 -544 69 -29 736 -196 879 -221 127 -23 2158 -22 2286 0 206 36
388 127 543 270 166 154 272 334 322 549 11 45 76 563 145 1151 l126 1070 231
780 c127 429 235 794 240 812 l9 32 67 -45 c131 -88 267 -143 424 -170 72 -13
137 -15 293 -11 235 5 312 21 510 106 505 218 1140 612 1790 1111 662 509
1273 1050 1986 1757 l355 353 75 16 c91 19 186 14 295 -16 114 -32 205 -78
366 -186 271 -181 431 -234 703 -234 436 0 763 197 1000 603 118 203 279 568
381 862 20 61 39 112 40 114 2 2 30 -13 63 -33 78 -48 187 -92 286 -117 115
-29 358 -37 483 -15 235 41 411 134 587 311 151 150 275 353 394 642 173 419
253 853 274 1495 l2 68 90 -52 c120 -69 249 -124 349 -149 116 -29 359 -37
484 -15 230 40 411 135 577 301 166 166 261 347 301 577 29 162 12 586 -50
1313 -13 149 -23 271 -21 273 1 1 52 -20 112 -47 209 -94 326 -121 533 -121
306 0 548 91 758 285 170 157 273 334 329 565 24 99 26 124 30 415 4 281 3
326 -17 460 -46 314 -140 702 -268 1103 l-40 122 118 0 c313 0 562 101 775
315 97 96 155 177 210 290 82 171 109 313 102 535 -9 261 -49 375 -244 690
-354 575 -795 1408 -1102 2085 -178 392 -228 531 -315 880 -75 302 -105 449
-396 1925 -279 1415 -505 2381 -802 3425 -222 784 -507 1645 -771 2330 -54
141 -80 221 -78 245 3 56 59 350 102 540 93 407 197 779 515 1844 480 1604
667 2349 798 3178 103 645 120 928 113 1813 -8 844 -31 1329 -92 1905 -143
1348 -450 2372 -948 3167 -253 403 -606 786 -962 1045 -400 290 -782 469
-1251 587 -251 63 -341 74 -681 78 -353 5 -474 -6 -733 -71 -364 -90 -742
-287 -1080 -560 -294 -237 -557 -525 -973 -1061 -287 -369 -368 -465 -625
-733 -486 -508 -1432 -1547 -2601 -2857 -167 -187 -313 -350 -325 -362 l-21
-22 -170 24 c-219 31 -595 70 -900 92 -198 14 -377 17 -1030 18 -914 0 -1058
-6 -2175 -95 -1020 -81 -924 -81 -1995 5 -1020 82 -1450 99 -2305 92 -644 -6
-914 -18 -1335 -62 -136 -14 -480 -58 -547 -70 -25 -4 -58 30 -410 423 -1359
1517 -2174 2411 -2568 2817 -215 222 -326 352 -601 705 -312 401 -440 552
-653 769 -274 277 -446 418 -698 569 -261 156 -465 243 -740 312 -221 56 -356
70 -671 69 -155 -1 -315 -5 -356 -10z"/>
</g>
</svg>
