<?xml version="1.0" standalone="no"?>
<!DOCTYPE svg PUBLIC "-//W3C//DTD SVG 20010904//EN"
 "http://www.w3.org/TR/2001/REC-SVG-20010904/DTD/svg10.dtd">
<svg version="1.0" xmlns="http://www.w3.org/2000/svg"
 width="3696.000000pt" height="5174.000000pt" viewBox="0 0 3696.000000 5174.000000"
 preserveAspectRatio="xMidYMid meet">

<g transform="translate(0.000000,5174.000000) scale(0.100000,-0.100000)"
fill="#000000" stroke="none">
<path d="M18257 48065 c-239 -45 -406 -140 -597 -338 -321 -334 -394 -400
-575 -520 -202 -133 -318 -170 -530 -170 -143 -1 -208 9 -353 54 -141 43 -247
59 -402 59 -317 0 -556 -89 -768 -285 -123 -114 -238 -281 -307 -444 l-33 -76
-83 2 c-46 2 -174 7 -284 13 -110 5 -409 13 -665 16 -405 6 -477 4 -558 -10
-219 -38 -397 -128 -561 -281 -77 -73 -79 -74 -112 -64 -19 5 -137 37 -262 69
l-228 58 -152 90 c-991 581 -1991 958 -2922 1101 -317 49 -378 53 -830 58
-475 6 -601 -1 -890 -43 -522 -77 -1017 -231 -1481 -460 -561 -277 -1054 -640
-1524 -1120 -336 -344 -557 -651 -776 -1079 -344 -671 -530 -1415 -575 -2300
-14 -281 -6 -908 16 -1185 84 -1068 348 -2265 787 -3561 l63 -186 -64 -44
c-256 -175 -564 -433 -786 -660 -293 -299 -414 -488 -471 -734 -27 -115 -27
-415 0 -533 l19 -83 -70 -72 c-173 -177 -398 -475 -553 -732 -412 -682 -617
-1433 -636 -2330 -6 -244 -4 -305 10 -383 67 -380 322 -690 683 -827 63 -24
72 -31 68 -49 -3 -12 -26 -149 -51 -306 -150 -943 -207 -1478 -235 -2220 -13
-340 -7 -1292 11 -1605 60 -1097 199 -2133 451 -3375 64 -313 81 -375 134
-485 55 -113 113 -194 210 -290 166 -167 348 -261 577 -301 51 -9 94 -17 94
-17 1 -1 29 -195 63 -432 279 -1957 647 -3632 1106 -5035 99 -300 155 -447
207 -535 137 -233 354 -411 605 -494 153 -51 397 -66 569 -35 49 9 95 17 103
18 9 1 35 -66 81 -209 352 -1095 997 -2319 1774 -3365 462 -622 1023 -1244
1591 -1765 249 -229 338 -291 506 -359 145 -58 221 -71 424 -71 203 0 279 13
424 71 119 48 202 99 386 239 88 67 166 125 172 129 8 4 76 -47 185 -142 652
-560 1347 -1099 1773 -1374 298 -192 517 -312 652 -357 203 -68 522 -68 726 0
303 101 559 344 668 637 13 34 26 62 29 62 3 0 182 -556 398 -1236 l393 -1235
84 -1112 c91 -1190 95 -1229 160 -1387 101 -244 302 -445 545 -544 69 -29 736
-196 879 -221 127 -23 2158 -22 2286 0 206 36 388 127 543 270 166 154 272
334 322 549 11 45 76 563 145 1151 l126 1070 375 1270 c206 699 380 1280 387
1293 6 13 44 41 83 62 l71 39 22 -57 c12 -31 40 -88 63 -127 165 -281 431
-465 750 -521 126 -22 378 -15 494 15 257 64 645 306 1149 716 371 302 683
592 1242 1152 l442 443 283 -197 c341 -237 419 -286 523 -331 132 -55 221 -73
400 -79 228 -7 368 19 540 102 173 84 279 178 594 530 1118 1246 1926 2360
2469 3405 179 345 368 786 483 1130 43 127 57 159 69 154 8 -4 85 -9 170 -11
223 -7 364 20 535 102 115 56 194 114 295 215 170 169 212 252 359 694 124
375 189 589 290 957 327 1199 606 2638 812 4202 l44 327 40 10 c178 45 378
162 506 297 155 163 219 293 352 718 342 1089 523 2116 589 3325 16 291 15
1372 0 1680 -40 773 -95 1305 -248 2408 -29 216 -54 396 -54 401 0 4 33 20 73
35 361 138 616 448 683 828 14 78 16 141 11 383 -22 1132 -360 2080 -1023
2875 -62 74 -139 161 -172 193 l-59 58 20 77 c29 110 31 420 3 537 -38 165
-114 318 -235 475 -85 110 -415 446 -556 565 -118 99 -388 307 -473 365 -28
19 -53 39 -56 45 -2 5 41 143 95 305 407 1225 653 2349 745 3400 21 249 30
1020 15 1286 -73 1239 -441 2251 -1113 3061 -129 156 -486 509 -663 657 -783
653 -1629 1040 -2580 1180 -288 42 -415 48 -885 43 -445 -4 -487 -7 -824 -57
-598 -88 -1267 -290 -1931 -585 -286 -127 -766 -375 -1004 -520 -75 -45 -106
-56 -241 -90 -85 -21 -221 -57 -301 -80 l-145 -41 -72 67 c-157 147 -339 237
-554 275 -82 15 -165 16 -723 10 -346 -3 -684 -8 -750 -12 l-120 -5 -57 118
c-79 164 -127 232 -243 348 -174 175 -352 270 -580 310 -114 20 -337 19 -451
-1 -72 -12 -102 -13 -154 -4 -115 20 -260 60 -456 125 -434 146 -797 333
-1119 580 -149 114 -273 177 -430 217 -107 27 -403 34 -518 13z"/>
</g>
</svg>
