<?xml version="1.0" standalone="no"?>
<!DOCTYPE svg PUBLIC "-//W3C//DTD SVG 20010904//EN"
 "http://www.w3.org/TR/2001/REC-SVG-20010904/DTD/svg10.dtd">
<svg version="1.0" xmlns="http://www.w3.org/2000/svg"
 width="3696.000000pt" height="5174.000000pt" viewBox="0 0 3696.000000 5174.000000"
 preserveAspectRatio="xMidYMid meet">

<g transform="translate(0.000000,5174.000000) scale(0.100000,-0.100000)"
fill="#000000" stroke="none">
<path d="M16170 43144 c-164 -6 -500 -33 -665 -55 -82 -10 -169 -19 -192 -19
-57 0 -355 -52 -608 -106 -115 -25 -263 -56 -327 -70 -65 -13 -157 -36 -205
-50 -49 -15 -122 -35 -163 -46 -179 -46 -384 -113 -625 -205 -93 -36 -235 -90
-315 -120 -252 -96 -417 -167 -835 -361 -269 -125 -1012 -510 -1150 -596 -91
-56 -332 -198 -406 -239 -37 -20 -140 -85 -230 -145 -90 -60 -222 -146 -294
-191 -71 -46 -206 -136 -300 -202 -93 -65 -190 -131 -214 -146 -51 -33 -166
-117 -309 -228 -56 -44 -130 -100 -165 -124 -133 -95 -612 -491 -767 -636 -41
-39 -100 -92 -130 -117 -31 -25 -182 -169 -336 -320 -154 -150 -338 -327 -409
-393 -113 -105 -433 -435 -866 -892 -693 -732 -1207 -1256 -1472 -1501 -210
-194 -245 -223 -357 -289 -193 -113 -326 -243 -428 -418 -70 -120 -100 -209
-138 -411 -3 -18 -19 -26 -86 -44 -93 -25 -356 -126 -523 -202 -289 -131 -658
-350 -855 -508 -41 -33 -120 -95 -175 -139 -279 -220 -710 -712 -887 -1011
-140 -236 -202 -347 -227 -407 -16 -38 -62 -140 -104 -228 -42 -88 -85 -191
-98 -230 -12 -38 -41 -126 -65 -195 -87 -252 -120 -372 -148 -550 -114 -710
-111 -677 -111 -1270 1 -524 7 -627 64 -994 11 -66 22 -146 25 -176 18 -154
63 -380 111 -557 98 -366 136 -494 184 -627 27 -72 59 -162 71 -201 55 -176
187 -495 329 -795 38 -80 87 -183 109 -230 21 -47 92 -173 157 -280 65 -107
145 -240 178 -295 33 -55 87 -134 118 -175 32 -41 93 -122 135 -180 154 -209
316 -400 537 -631 123 -129 251 -257 283 -284 33 -27 95 -83 139 -125 217
-203 610 -509 925 -719 107 -72 229 -154 270 -183 90 -64 223 -146 267 -164
18 -8 80 -43 138 -79 58 -36 131 -78 163 -93 31 -16 89 -48 127 -72 39 -24
120 -67 180 -95 61 -28 133 -63 162 -78 l52 -27 30 -97 c16 -54 37 -126 46
-161 8 -34 35 -117 59 -185 24 -67 67 -194 96 -282 29 -88 78 -221 108 -295
30 -74 76 -189 102 -255 26 -66 62 -151 80 -190 17 -38 56 -133 87 -210 30
-77 77 -180 103 -230 27 -49 65 -130 85 -180 20 -49 49 -115 65 -145 24 -46
36 -100 74 -340 59 -372 99 -676 131 -990 38 -382 45 -472 45 -621 0 -255 53
-444 179 -634 107 -163 306 -328 471 -391 25 -9 46 -18 47 -18 8 -5 47 -270
59 -399 18 -195 66 -482 94 -568 118 -353 410 -624 764 -709 43 -11 79 -20 81
-22 9 -13 102 -248 122 -308 57 -176 147 -325 273 -450 201 -202 461 -310 745
-310 l93 0 25 -43 c14 -24 40 -79 57 -123 114 -290 347 -531 622 -645 111 -46
218 -68 378 -79 244 -16 459 -62 659 -140 96 -38 111 -47 210 -138 294 -268
642 -566 726 -623 33 -22 89 -54 125 -71 36 -17 151 -97 255 -178 105 -81 243
-186 308 -233 65 -48 144 -107 175 -131 60 -47 128 -94 362 -252 80 -53 163
-112 185 -129 22 -17 135 -89 250 -159 116 -71 224 -138 240 -151 36 -26 215
-132 240 -142 10 -3 77 -42 148 -85 71 -43 134 -78 139 -78 5 0 40 -18 77 -40
l68 -41 52 -162 c29 -89 90 -279 136 -422 46 -143 86 -271 90 -285 3 -14 41
-135 85 -270 43 -135 115 -357 158 -495 44 -137 114 -356 155 -485 69 -213 77
-247 86 -360 48 -566 133 -1658 141 -1800 9 -194 34 -328 82 -449 99 -250 302
-455 548 -555 36 -15 153 -49 260 -77 107 -28 274 -71 370 -97 l175 -47 1074
-3 c1155 -3 1160 -3 1314 49 236 79 446 251 580 475 46 77 100 217 121 314 19
89 146 1092 146 1154 0 76 108 908 130 998 11 49 31 121 44 160 50 152 106
337 130 428 14 52 36 131 50 175 14 44 37 118 52 165 14 47 43 146 64 220 20
74 54 189 75 255 21 66 51 167 67 225 16 58 57 196 91 307 l62 202 60 36 c59
36 201 126 320 202 33 21 82 49 110 63 27 14 93 50 145 79 52 30 131 73 175
95 44 23 105 58 135 78 30 20 96 58 145 86 50 27 118 67 152 88 74 46 300 187
433 270 52 32 143 93 202 134 59 41 164 113 233 160 69 47 168 117 218 155 51
39 171 128 267 200 96 71 242 183 324 249 82 67 181 145 220 174 90 69 136
112 195 187 96 121 156 244 191 389 25 102 46 123 172 175 198 82 432 134 683
150 219 15 357 54 515 146 211 124 329 268 490 598 l72 147 98 0 c378 0 713
193 913 526 48 81 158 337 192 449 15 50 28 91 30 93 1 2 38 11 81 22 211 50
417 177 549 337 102 123 196 300 230 433 12 45 93 530 136 805 15 100 14 99
66 118 72 27 192 101 269 165 171 143 287 335 345 566 16 64 23 135 29 336 18
504 31 623 182 1660 23 161 41 214 158 460 141 298 239 518 270 605 18 50 61
159 96 243 35 84 70 174 78 200 7 26 45 126 84 222 38 96 73 191 77 210 4 19
37 130 72 245 36 116 70 227 75 247 6 20 18 44 27 52 9 8 79 44 156 79 77 35
193 95 257 133 65 38 172 101 239 139 252 145 358 209 512 313 88 59 191 127
231 151 39 25 105 70 146 101 202 151 470 360 519 405 31 28 72 63 91 79 19
16 136 123 259 240 218 206 468 467 603 630 143 172 425 556 497 676 41 69 94
154 117 190 45 71 154 263 154 273 0 3 25 50 55 104 30 54 79 157 109 228 30
72 79 182 109 245 30 63 69 153 86 200 18 47 61 157 96 245 35 88 74 196 85
240 12 44 48 163 80 265 73 233 92 301 129 475 17 77 44 203 60 279 34 155 72
378 97 566 21 162 32 1111 15 1391 -42 725 -351 1683 -726 2254 -18 28 -66
102 -107 165 -119 182 -264 359 -476 579 -225 234 -402 383 -682 576 -166 115
-214 143 -465 269 -267 135 -532 247 -703 298 -90 26 -113 37 -116 53 -38 202
-68 290 -138 410 -100 171 -244 311 -433 423 -79 47 -129 88 -311 252 -162
147 -498 471 -532 513 -14 18 -103 111 -197 207 -204 207 -409 421 -670 700
-527 563 -1555 1589 -1755 1751 -30 24 -113 97 -185 162 -71 65 -170 150 -220
188 -49 38 -119 95 -155 125 -149 128 -214 181 -263 214 -29 20 -98 71 -153
115 -209 164 -677 491 -981 686 -49 31 -126 81 -173 111 -47 30 -152 95 -235
145 -460 275 -579 345 -665 388 -52 26 -121 62 -152 81 -31 19 -92 51 -135 71
-43 20 -124 62 -179 94 -56 32 -115 63 -130 69 -31 12 -199 90 -249 117 -16 8
-82 38 -145 65 -63 28 -153 70 -200 93 -138 69 -1122 455 -1160 455 -5 0 -72
20 -147 44 -193 62 -449 132 -573 156 -58 12 -172 37 -255 56 -169 38 -454 89
-590 105 -49 6 -164 19 -255 29 -381 45 -563 52 -1140 47 -382 -4 -585 -10
-680 -20 -432 -48 -660 -80 -839 -121 l-104 -23 -213 43 c-118 23 -247 46
-287 49 -39 4 -137 15 -217 25 -258 34 -517 49 -905 53 -209 3 -427 3 -485 1z"/>
</g>
</svg>
