<?xml version="1.0" standalone="no"?>
<!DOCTYPE svg PUBLIC "-//W3C//DTD SVG 1.1//EN"
  "http://www.w3.org/Graphics/SVG/1.1/DTD/svg11.dtd">
<svg width="26.249999523162842mm" height="27.749999999999993mm" viewBox="1.6500000953674316 -10.649999618530272 26.249999523162842 27.749999999999993" xmlns="http://www.w3.org/2000/svg" version="1.1">
	<title>svgOutput</title>
	<desc>made with tinkercad</desc>
<path d="M 4.968999862670898 -2.2009999752044673 L 5.275000095367432 -2.356927394866943 L 5.650000095367432 -2.548014640808105 L 5.893527507781982 -2.672108173370361 L 6.027173042297363 -2.740209341049194 L 5.942574977874756 -2.9059453010559078 L 5.817999839782715 -3.1500000953674308 L 5.798244476318359 -3.2750000953674308 L 5.668490886688232 -4.09600019454956 L 5.650000095367432 -4.212999820709228 L 5.817999839782715 -5.275000095367431 L 6.307000160217285 -6.23299980163574 L 7.066999912261963 -6.993000030517576 L 8.024999618530273 -7.4819998741149885 L 9.088000297546387 -7.65000009536743 L 10.149999618530273 -7.4819998741149885 L 10.399999618530273 -7.354390621185301 L 10.565423011779785 -7.269951820373533 L 10.567069053649902 -7.269112110137938 L 10.567999839782715 -7.27500009536743 L 10.65518856048584 -7.445811271667479 L 10.759414672851562 -7.65000009536743 L 11.03607177734375 -8.19200038909912 L 11.057000160217285 -8.23299980163574 L 11.817000389099121 -8.993000030517576 L 12.774999618530273 -9.482000350952147 L 13.838000297546387 -9.649999618530272 L 14.024999618530273 -9.620418548583983 L 14.899999618530273 -9.482000350952147 L 15.274999618530273 -9.290585517883299 L 15.857999801635742 -8.993000030517576 L 15.958820343017578 -8.89217948913574 L 16.553831100463867 -8.297168731689451 L 16.618000030517578 -8.23299980163574 L 16.638927459716797 -8.19200038909912 L 16.682884216308594 -8.105884552001951 L 16.768999099731445 -8.19200038909912 L 17.207000732421875 -8.630000114440916 L 17.274999618530273 -8.664649963378904 L 18.149999618530273 -9.11051845550537 L 18.513999938964844 -9.295999526977537 L 19.96299934387207 -9.524999618530272 L 21.410999298095703 -9.295999526977537 L 22.718000411987305 -8.630000114440916 L 23.1560001373291 -8.19200038909912 L 23.7549991607666 -7.592999935150145 L 24.42099952697754 -6.2859997749328596 L 24.649999618530273 -4.837999820709228 L 24.42099952697754 -3.388999938964843 L 24.299213409423828 -3.1500000953674308 L 24.286314010620117 -3.124685287475585 L 24.125585556030273 -2.809261798858642 L 24.361820220947266 -2.688820838928222 L 24.649999618530273 -2.541896820068359 L 25.097000122070312 -2.3139998912811275 L 26.06399917602539 -1.3470000028610225 L 26.68600082397461 -0.1270000040531157 L 26.70610237121582 1.1102230246251565e-16 L 26.899999618530273 1.225000023841858 L 26.68600082397461 2.5769999027252193 L 26.06399917602539 3.7969999313354483 L 25.097000122070312 4.763999938964843 L 24.98307991027832 4.822080135345458 L 25.318788528442383 5.157787799835204 L 25.68899917602539 5.527999877929687 L 25.7257080078125 5.5999999046325675 L 26.31100082397461 6.748000144958494 L 26.524999618530273 8.100000381469725 L 26.51043701171875 8.19200038909912 L 26.31100082397461 9.451999664306639 L 25.68899917602539 10.671999931335447 L 24.722000122070312 11.638999938964842 L 23.50200080871582 12.260999679565426 L 22.149999618530273 12.475000381469723 L 22.14025115966797 12.473457336425778 L 22.14000701904297 12.475000381469723 L 22.011999130249023 13.281999588012692 L 21.613000869750977 14.065999984741207 L 20.990999221801758 14.687999725341793 L 20.207000732421875 15.086999893188473 L 19.33799934387207 15.225000381469723 L 18.468000411987305 15.086999893188473 L 18.149999618530273 14.925160408020016 L 17.899999618530273 14.797928810119625 L 17.823266983032227 14.758876800537106 L 17.774999618530273 14.734312057495114 L 17.68400001525879 14.687999725341793 L 17.461000442504883 14.465000152587887 L 17.390342712402344 14.394342422485348 L 17.309602737426758 14.552517890930172 L 17.243000030517578 14.682999610900875 L 16.934207916259766 14.991791725158688 L 16.701000213623047 15.225000381469723 L 16.524999618530273 15.40100002288818 L 16.482999801635742 15.442999839782711 L 15.524999618530273 15.932000160217282 L 15.274999618530273 15.971548080444332 L 14.463000297546387 16.100000381469723 L 13.399999618530273 15.932000160217282 L 12.442000389099121 15.442999839782711 L 11.682000160217285 14.682999610900875 L 11.192999839782715 13.725000381469723 L 11.155343055725098 13.486728668212887 L 11.14745807647705 13.436840057373043 L 11.024999618530273 13.499273300170895 L 11.001999855041504 13.510999679565426 L 9.649999618530273 13.725000381469723 L 8.29800033569336 13.510999679565426 L 7.078000068664551 12.88899993896484 L 6.111000061035156 11.921999931335447 L 5.488999843597412 10.701999664306639 L 5.275000095367432 9.350000381469725 L 5.4582929611206055 8.19200038909912 L 5.488999843597412 7.998000144958494 L 5.500726222991943 7.974999904632567 L 5.683839321136475 7.615839481353758 L 5.825718879699707 7.337554931640623 L 5.644028186798096 7.244971752166746 L 5.275000095367432 7.056927204132078 L 4.968999862670898 6.901000022888182 L 3.7239999771118164 5.656000137329101 L 2.924999952316284 4.087999820709228 L 2.6500000953674316 2.349999904632568 L 2.924999952316284 0.6119999885559082 L 3.2368545532226562 1.1102230246251565e-16 L 3.7239999771118164 -0.9559999704360959 L 4.968999862670898 -2.2009999752044673 z" fill="none" stroke="rgb(255,0,0)" stroke-width="0.001mm" />
</svg>